HIERARCHY
ROOT hip
{
  OFFSET 0 0 0
  CHANNELS 6 Xposition Yposition Zposition Zrotation Yrotation Xrotation
  JOINT abdomen
  {
    OFFSET 0 20.6881 -0.73152
    CHANNELS 3 Zrotation Xrotation Yrotation
    JOINT chest
    {
      OFFSET 0 11.7043 -0.48768
      CHANNELS 3 Zrotation Xrotation Yrotation
      JOINT neck
      {
        OFFSET 0 22.1894 -2.19456
        CHANNELS 3 Zrotation Xrotation Yrotation
        JOINT head
        {
          OFFSET -0.24384 7.07133 1.2192
          CHANNELS 3 Zrotation Xrotation Yrotation
          JOINT leftEye
          {
            OFFSET 4.14528 8.04674 8.04672
            CHANNELS 3 Zrotation Xrotation Yrotation
            End Site
            {
              OFFSET 1 0 0
            }
          }
          JOINT rightEye
          {
            OFFSET -3.6576 8.04674 8.04672
            CHANNELS 3 Zrotation Xrotation Yrotation
            End Site
            {
              OFFSET 1 0 0
            }
          }
        }
      }
      JOINT rCollar
      {
        OFFSET -2.68224 19.2634 -4.8768
        CHANNELS 3 Zrotation Xrotation Yrotation
        JOINT rShldr
        {
          OFFSET -8.77824 -1.95073 1.46304
          CHANNELS 3 Zrotation Xrotation Yrotation
          JOINT rForeArm
          {
            OFFSET -28.1742 -1.7115 0.48768
            CHANNELS 3 Zrotation Xrotation Yrotation
            JOINT rHand
            {
              OFFSET -22.5879 0.773209 7.07136
              CHANNELS 3 Zrotation Xrotation Yrotation
              JOINT rThumb1
              {
                OFFSET -1.2192 -0.487915 3.41376
                CHANNELS 3 Zrotation Xrotation Yrotation
                JOINT rThumb2
                {
                  OFFSET -3.37035 -0.52449 3.41376
                  CHANNELS 3 Zrotation Xrotation Yrotation
                  End Site
                  {
                    OFFSET -1.78271 -1.18214 1.43049
                  }
                }
              }
              JOINT rIndex1
              {
                OFFSET -7.75947 0.938293 5.60832
                CHANNELS 3 Zrotation Xrotation Yrotation
                JOINT rIndex2
                {
                  OFFSET -2.54057 -0.884171 1.56538
                  CHANNELS 3 Zrotation Xrotation Yrotation
                  End Site
                  {
                    OFFSET -1.62519 -0.234802 1.16502
                  }
                }
              }
              JOINT rMid1
              {
                OFFSET -8.24714 1.18213 3.41376
                CHANNELS 3 Zrotation Xrotation Yrotation
                JOINT rMid2
                {
                  OFFSET -3.10165 -0.590103 1.0647
                  CHANNELS 3 Zrotation Xrotation Yrotation
                  End Site
                  {
                    OFFSET -2.48547 -0.328903 0.83742
                  }
                }
              }
              JOINT rRing1
              {
                OFFSET -8.82822 0.546677 1.51678
                CHANNELS 3 Zrotation Xrotation Yrotation
                JOINT rRing2
                {
                  OFFSET -2.60934 -0.819778 -0.0198488
                  CHANNELS 3 Zrotation Xrotation Yrotation
                  End Site
                  {
                    OFFSET -2.33842 -0.294052 0.168128
                  }
                }
              }
              JOINT rPinky1
              {
                OFFSET -8.27202 -0.0477905 -0.4584
                CHANNELS 3 Zrotation Xrotation Yrotation
                JOINT rPinky2
                {
                  OFFSET -1.82734 -0.647385 -0.700984
                  CHANNELS 3 Zrotation Xrotation Yrotation
                  End Site
                  {
                    OFFSET -1.69225 -0.51767 -0.607171
                  }
                }
              }
            }
          }
        }
      }
      JOINT lCollar
      {
        OFFSET 2.68224 19.2634 -4.8768
        CHANNELS 3 Zrotation Xrotation Yrotation
        JOINT lShldr
        {
          OFFSET 8.77824 -1.95073 1.46304
          CHANNELS 3 Zrotation Xrotation Yrotation
          JOINT lForeArm
          {
            OFFSET 28.1742 -1.7115 0.48768
            CHANNELS 3 Zrotation Xrotation Yrotation
            JOINT lHand
            {
              OFFSET 22.5879 0.773209 7.07136
              CHANNELS 3 Zrotation Xrotation Yrotation
              JOINT lThumb1
              {
                OFFSET 1.2192 -0.487915 3.41376
                CHANNELS 3 Zrotation Xrotation Yrotation
                JOINT lThumb2
                {
                  OFFSET 3.37035 -0.52449 3.41376
                  CHANNELS 3 Zrotation Xrotation Yrotation
                  End Site
                  {
                    OFFSET 1.78271 -1.18214 1.43049
                  }
                }
              }
              JOINT lIndex1
              {
                OFFSET 7.75947 0.938293 5.60832
                CHANNELS 3 Zrotation Xrotation Yrotation
                JOINT lIndex2
                {
                  OFFSET 2.54057 -0.884171 1.56538
                  CHANNELS 3 Zrotation Xrotation Yrotation
                  End Site
                  {
                    OFFSET 1.62519 -0.234802 1.16502
                  }
                }
              }
              JOINT lMid1
              {
                OFFSET 8.24714 1.18213 3.41376
                CHANNELS 3 Zrotation Xrotation Yrotation
                JOINT lMid2
                {
                  OFFSET 3.10165 -0.590103 1.0647
                  CHANNELS 3 Zrotation Xrotation Yrotation
                  End Site
                  {
                    OFFSET 2.48547 -0.328903 0.83742
                  }
                }
              }
              JOINT lRing1
              {
                OFFSET 8.82822 0.546677 1.51678
                CHANNELS 3 Zrotation Xrotation Yrotation
                JOINT lRing2
                {
                  OFFSET 2.60934 -0.819778 -0.0198488
                  CHANNELS 3 Zrotation Xrotation Yrotation
                  End Site
                  {
                    OFFSET 2.33842 -0.294052 0.168128
                  }
                }
              }
              JOINT lPinky1
              {
                OFFSET 8.27202 -0.0477905 -0.4584
                CHANNELS 3 Zrotation Xrotation Yrotation
                JOINT lPinky2
                {
                  OFFSET 1.82734 -0.647385 -0.700984
                  CHANNELS 3 Zrotation Xrotation Yrotation
                  End Site
                  {
                    OFFSET 1.69225 -0.51767 -0.607171
                  }
                }
              }
            }
          }
        }
      }
    }
  }
  JOINT rButtock
  {
    OFFSET -8.77824 4.35084 1.2192
    CHANNELS 3 Zrotation Xrotation Yrotation
    JOINT rThigh
    {
      OFFSET 0 -1.70687 -2.19456
      CHANNELS 3 Zrotation Xrotation Yrotation
      JOINT rShin
      {
        OFFSET 0 -36.8199 0.73152
        CHANNELS 3 Zrotation Xrotation Yrotation
        JOINT rFoot
        {
          OFFSET 0.73152 -45.1104 -5.12064
          CHANNELS 3 Zrotation Xrotation Yrotation
          End Site
          {
            OFFSET -1.1221 -3.69964 12.103
          }
        }
      }
    }
  }
  JOINT lButtock
  {
    OFFSET 8.77824 4.35084 1.2192
    CHANNELS 3 Zrotation Xrotation Yrotation
    JOINT lThigh
    {
      OFFSET 0 -1.70687 -2.19456
      CHANNELS 3 Zrotation Xrotation Yrotation
      JOINT lShin
      {
        OFFSET 0 -36.8199 0.73152
        CHANNELS 3 Zrotation Xrotation Yrotation
        JOINT lFoot
        {
          OFFSET -0.73152 -45.1104 -5.12064
          CHANNELS 3 Zrotation Xrotation Yrotation
          End Site
          {
            OFFSET 1.1221 -3.69964 12.103
          }
        }
      }
    }
  }
}
MOTION
Frames:	4
Frame Time:	0.03333
58.6615 70.7357 -163.083 -554.168 -242.768 523.813 0.42282700000000006 16.767 -7.44378 9.859040000000002 -10.0889 -1.17142 -10.241599999999998 20.8638 -16.1076 11.8153 -24.277500000000003 -29.463099999999997 -0.0 0.0 0.0 -0.0 0.0 0.0 1.0463600000000001e-13 -3.68547e-13 7.062819999999999e-13 52.6394 -7.097990000000001 28.4681 -28.4071 -36.8654 78.4672 -1.83204 35.4107 5.734380000000001 5.1758e-09 2.6229e-09 -3.19477e-09 8.86015e-09 4.351649999999999e-09 -5.65057e-09 5.1758e-09 2.62291e-09 -3.19477e-09 7.730909999999999 5.47488 0.417314 5.1758e-09 2.62291e-09 -3.19477e-09 2.90554 0.965183 0.102902 5.1758e-09 2.62291e-09 -3.19478e-09 10.278600000000003 0.731801 0.0259123 5.1758e-09 2.62291e-09 -3.19477e-09 2.22167 -0.733487 -0.20892000000000002 1.04542e-13 -3.68547e-13 7.06033e-13 -12.8826 80.2616 -61.3267 27.7509 -41.5657 -86.7761 79.8834 -81.9945 87.86259999999999 -1.04577e-09 3.710110000000001e-08 -2.92112e-09 -1.5798500000000003e-09 6.53057e-08 -4.99298e-09 -1.04577e-09 3.710110000000001e-08 -2.9210999999999998e-09 -7.730909999999999 5.47488 -0.417314 -1.04576e-09 3.710110000000001e-08 -2.92111e-09 -2.90554 0.965183 -0.102902 -1.04577e-09 3.710110000000001e-08 -2.92111e-09 -10.278600000000003 0.731801 -0.0259123 -1.04577e-09 3.710110000000001e-08 -2.92111e-09 -2.22167 -0.733487 0.20892000000000002 -2.03217e-16 0.0 -3.88251e-19 -41.27680000000001 -38.4894 -30.928700000000006 -0.517648 44.4322 0.434324 -2.19344 29.8604 3.71797 2.03217e-16 0.0 3.88251e-19 11.929999999999998 -34.052200000000006 14.2812 3.06052 76.4597 -4.38282 14.4856 -28.7893 20.771400000000003
58.758900000000004 70.1365 -162.257 -554.6149999999999 -244.119 523.304 0.265686 16.628900000000005 -7.646140000000001 10.122599999999998 -10.0153 -1.2255 -10.1395 21.334700000000005 -16.644699999999997 12.574299999999997 -24.801299999999998 -30.3599 -0.0 0.0 0.0 -0.0 0.0 0.0 2.27697e-14 -7.41711e-14 4.14649e-13 52.11059999999999 -8.7964 27.4447 -28.415 -36.0294 77.1331 -1.852 35.5624 5.76741 2.3370700000000005e-09 1.2747800000000002e-09 -1.39682e-09 4.002239999999999e-09 2.12905e-09 -2.47037e-09 2.3370700000000005e-09 1.2747800000000002e-09 -1.39683e-09 7.730909999999999 5.47488 0.417314 2.3370700000000005e-09 1.27479e-09 -1.39682e-09 2.90554 0.965183 0.102902 2.3370700000000005e-09 1.27479e-09 -1.39682e-09 10.278600000000003 0.731801 0.0259123 2.3370700000000005e-09 1.27479e-09 -1.39681e-09 2.22167 -0.733487 -0.20892000000000002 2.26323e-14 -7.4173e-14 4.1437000000000003e-13 -18.0393 81.0073 -55.68529999999999 27.625 -42.0633 -87.7009 66.351 -81.6947 74.1933 -5.37903e-10 1.20963e-08 -1.1546599999999998e-09 -8.33357e-10 2.17529e-08 -1.97908e-09 -5.37904e-10 1.20963e-08 -1.15465e-09 -7.730909999999999 5.47488 -0.417314 -5.379e-10 1.20963e-08 -1.1546599999999998e-09 -2.90554 0.965183 -0.102902 -5.379089999999999e-10 1.20963e-08 -1.15465e-09 -10.278600000000003 0.731801 -0.0259123 -5.37903e-10 1.20963e-08 -1.1546599999999998e-09 -2.22167 -0.733487 0.20892000000000002 -2.03217e-16 0.0 -3.88251e-19 -41.2713 -37.4707 -31.5671 -0.55666 45.9312 0.481402 -1.63848 25.296 2.78734 2.03217e-16 0.0 3.88251e-19 13.236 -34.4132 14.600399999999999 3.47773 77.579 -4.71133 14.3251 -29.661699999999996 20.1062
58.8134 69.6152 -161.38 -554.741 -244.94999999999996 523.135 -0.125459 16.4453 -7.484719999999999 10.2968 -9.89727 -1.19542 -10.0622 21.7915 -17.1012 13.245100000000003 -25.4795 -31.118299999999998 -0.0 0.0 0.0 -0.0 0.0 0.0 -3.807960000000001e-14 1.9759400000000003e-13 1.49089e-16 51.5578 -10.118 26.4526 -28.4333 -35.5901 76.3247 -1.86847 35.7043 5.79703 -1.26929e-09 -5.00155e-10 8.947059999999999e-10 -2.16973e-09 -8.09823e-10 1.5808e-09 -1.2692800000000002e-09 -5.00163e-10 8.947e-10 7.730909999999999 5.47488 0.417314 -1.26929e-09 -5.001559999999999e-10 8.947089999999999e-10 2.90554 0.965183 0.102902 -1.26929e-09 -5.00155e-10 8.947089999999999e-10 10.278600000000003 0.731801 0.0259123 -1.26929e-09 -5.00152e-10 8.947149999999999e-10 2.22167 -0.733487 -0.20892000000000002 -3.8256199999999996e-14 1.97589e-13 -1.49089e-16 -21.5842 81.6867 -51.8089 27.5286 -42.4069 -88.3545 47.7229 -80.3038 55.3382 5.42505e-13 -1.4437200000000001e-08 9.62856e-10 -6.118710000000002e-11 -2.4633599999999996e-08 1.63043e-09 5.39502e-13 -1.4437200000000001e-08 9.62862e-10 -7.730909999999999 5.47488 -0.417314 5.43378e-13 -1.4437200000000001e-08 9.62856e-10 -2.90554 0.965183 -0.102902 5.344140000000001e-13 -1.4437200000000001e-08 9.6286e-10 -10.278600000000003 0.731801 -0.0259123 5.42285e-13 -1.4437200000000001e-08 9.62852e-10 -2.22167 -0.733487 0.20892000000000002 -2.03217e-16 0.0 -3.88251e-19 -41.28580000000001 -36.7782 -32.212799999999994 -0.599189 47.4738 0.535564 -1.17902 19.455100000000005 1.8536400000000002 2.03217e-16 0.0 3.88251e-19 14.396200000000002 -34.743 15.003499999999999 3.89901 78.5248 -5.03247 14.024900000000002 -30.528700000000004 19.2557
58.8765 69.1505 -160.615 -553.8750000000001 -245.32799999999997 524.104 -0.5934250000000001 16.0795 -7.03033 10.171 -9.73101 -1.1118299999999999 -10.100299999999999 22.0285 -17.4041 13.6632 -25.6969 -31.6344 -0.0 0.0 0.0 -0.0 0.0 0.0 -2.71392e-14 2.22094e-13 1.0454800000000001e-14 51.519099999999995 -11.166 25.6636 -28.427199999999996 -35.1912 75.6733 -2.00301 36.7613 6.0259 -2.50192e-10 -1.6172199999999998e-10 2.00285e-10 -4.28179e-10 -2.73868e-10 3.5211e-10 -2.50179e-10 -1.61728e-10 2.00281e-10 7.730909999999999 5.47488 0.417314 -2.50194e-10 -1.61723e-10 2.00287e-10 2.90554 0.965183 0.102902 -2.5018699999999997e-10 -1.61723e-10 2.0028999999999996e-10 10.278600000000003 0.731801 0.0259123 -2.50197e-10 -1.6172199999999998e-10 2.0029499999999998e-10 2.22167 -0.733487 -0.20892000000000002 -2.7279899999999997e-14 2.2208900000000004e-13 1.0178400000000001e-14 -27.413299999999996 82.1844 -45.62460000000001 27.5306 -42.3961 -88.338 37.2642 -78.7001 44.7036 -9.256219999999999e-10 -1.01321e-08 7.233969999999999e-10 -1.63242e-09 -1.67272e-08 1.17191e-09 -9.25627e-10 -1.01321e-08 7.23399e-10 -7.730909999999999 5.47488 -0.417314 -9.25623e-10 -1.01321e-08 7.23401e-10 -2.90554 0.965183 -0.102902 -9.256340000000002e-10 -1.01321e-08 7.23404e-10 -10.278600000000003 0.731802 -0.0259123 -9.2562e-10 -1.01321e-08 7.23402e-10 -2.22167 -0.733487 0.20892000000000002 -2.03217e-16 0.0 -3.88251e-19 -41.1963 -36.27360000000001 -32.8411 -0.6207890000000001 48.3301 0.584462 -1.06533 14.561999999999998 2.1205999999999996 2.03217e-16 0.0 3.88251e-19 15.3543 -34.8546 15.717 4.2169099999999995 79.1386 -5.282360000000001 13.9333 -31.2106 18.8157
